<?xml version="1.0" encoding="UTF-8"?>
<svg id="Layer_1" xmlns="http://www.w3.org/2000/svg" version="1.1" viewBox="100 180 300 180">
  <defs>
    <style>
      .st3 {
        fill: #ffffff;
      }
      .text-fill {
        fill: #ffffff;
      }
    </style>
  </defs>
  <g>
    <g>
      <polygon class="st3" points="362.8 207.5 310.6 207.5 275.9 242.2 310.6 277 362.8 277 328 242.2 362.8 207.5"/>
      <rect class="st3" x="137.2" y="207.6" width="34.8" height="69.4"/>
      <path class="st3" d="M186.6,242.3c0,19.2,15.5,34.7,34.7,34.7h37.4v-69.4h-37.4c-19.2,0-34.7,15.5-34.7,34.7Z"/>
    </g>
    <g class="text-fill">
      <path d="M140.8,304.5h-2.8v-13.8h2.8v13.8Z"/>
      <path d="M154.8,290.8v13.8h-2.8l-6.7-9.4v9.4h-2.9v-13.8h2.8l6.7,9.3v-9.3h2.8Z"/>
      <path d="M160,304.5l-4.5-13.8h2.9l3.3,9.9,3.3-9.9h2.9l-4.5,13.8h-3.3Z"/>
      <path d="M178.3,290.8v2.8h-6.9v2.4h5.7v2.8h-5.7s0,3,0,3h6.9v2.8h-9.8v-13.8h9.8Z"/>
      <path d="M190.8,300.2c0,2.7-2.1,4.6-6,4.6s-5.4-1.9-5.4-4.4v-.3h3.3v.3c0,1.2,1.3,1.6,2.5,1.6s2.4-.3,2.4-1.6-1.5-1.4-3.2-1.8c-2.2-.5-4.9-1.2-4.9-3.7s2.2-4.4,5.7-4.4,5.4,1.8,5.4,4.4v.3h-3v-.3c0-1-1.4-1.7-2.7-1.7s-2.2.4-2.2,1.4,1.4,1.3,3,1.6c2.2.5,5,1.1,5,3.9Z"/>
      <path d="M204,290.8v2.8h-4.8v11h-3.1v-11h-4.8v-2.8h12.6Z"/>
      <path d="M219.1,290.8v13.8h-2.9v-7.9l-3.1,7.9h-2.3l-3.1-7.9v7.9h-2.9v-13.8h3.2l3.9,10.8,3.9-10.8h3.2Z"/>
      <path d="M230.5,290.8v2.8h-6.9v2.4h5.7v2.8h-5.7s0,3,0,3h6.9v2.8h-9.8v-13.8h9.8Z"/>
      <path d="M244.5,290.8v13.8h-2.8l-6.7-9.4v9.4h-2.9v-13.8h2.8l6.7,9.3v-9.3h2.8Z"/>
      <path d="M258,290.8v2.8h-4.8v11h-3.1v-11h-4.8v-2.8h12.6Z"/>
      <path d="M150.6,319.4c-.5,3.8-3.2,5.8-6.5,5.8s-6.6-2.5-6.6-7.2,3-7.2,6.6-7.2,5.8,2,6.4,5.4h-3.2c-.4-1.7-1.6-2.6-3.2-2.6s-3.6,1.4-3.6,4.3,1.5,4.3,3.6,4.3,3.1-1,3.4-3h3.1Z"/>
      <path d="M164.2,318.1c0,4.7-3,7.2-6.6,7.2s-6.6-2.5-6.6-7.2,3-7.2,6.6-7.2,6.6,2.7,6.6,7.2ZM161.2,318.1c0-2.9-1.5-4.3-3.6-4.3s-3.6,1.4-3.6,4.3,1.5,4.3,3.6,4.3,3.6-1.3,3.6-4.3Z"/>
      <path d="M179.5,311.2v13.8h-2.9v-7.9l-3.1,7.9h-2.3l-3.1-7.9v7.9h-2.9v-13.8h3.2l3.9,10.8,3.9-10.8h3.2Z"/>
      <path d="M186.9,311.2c3,0,4.8,2.2,4.8,4.4s-1.8,4.4-4.8,4.4-2.7,0-2.7,0v5h-3.1v-13.8h5.8ZM189,315.6c0-1.1-.9-1.8-1.9-1.8h-2.9v3.5h2.9c1.1,0,1.9-.6,1.9-1.7Z"/>
      <path d="M198.9,322.1h-5.1l-1.1,2.8h-2.9l5-13.8h3.2l4.7,13.8h-2.9l-1.1-2.8ZM197.9,319.6l-1.6-4.2-1.6,4.2h3.2Z"/>
      <path d="M215.4,311.2v13.8h-2.8l-6.7-9.4v9.4h-2.9v-13.8h2.8l6.7,9.3v-9.3h2.8Z"/>
      <path d="M228.2,311.2l-4.7,8.3v5.5h-2.9v-5.5l-4.7-8.3h3.5l2.6,5.4,2.7-5.4h3.5Z"/>
      <path d="M247.2,318.1c0,4.7-3,7.2-6.6,7.2s-6.6-2.5-6.6-7.2,3-7.2,6.6-7.2,6.6,2.7,6.6,7.2ZM244.2,318.1c0-2.9-1.5-4.3-3.6-4.3s-3.6,1.4-3.6,4.3,1.5,4.3,3.6,4.3,3.6-1.3,3.6-4.3Z"/>
      <path d="M248.3,325v-13.8h9.7v2.8h-6.6v2.4h5.1v2.8h-5.1v5.8h-3.1Z"/>
      <path d="M276.7,324.9h-3.4s-4.3-6-4.3-6l-1.5,1.6v4.4h-2.9v-13.8h2.9v5.7l5.2-5.7h3.4l-5.2,5.6,5.8,8.1Z"/>
      <path d="M285.2,322.1h-5.1l-1.1,2.8h-2.9l5-13.8h3.2l4.7,13.8h-2.9l-1.1-2.8ZM284.3,319.6l-1.6-4.2-1.6,4.2h3.2Z"/>
      <path d="M301.1,324.9h-3.5l-2.7-5h-2.5v5h-3.1v-13.8h6.4c3,0,4.8,2.2,4.8,4.4s-1,3.5-2.6,4.1l3.2,5.3ZM295.9,317.3c1.1,0,1.9-.6,1.9-1.7s-.9-1.8-1.9-1.8h-3.6v3.5h3.6Z"/>
      <path d="M309.5,322.1h-5.1l-1.1,2.8h-2.9l5-13.8h3.2l4.7,13.8h-2.9l-1.1-2.8ZM308.6,319.6l-1.6-4.2-1.6,4.2h3.2Z"/>
      <path d="M319.3,311.2c2.5,0,4.3,2,4.3,4s-1.2,2.9-1.6,2.9c1.3,0,2.6,1.4,2.6,3.2s-1.5,3.7-4,3.7h-7.1v-13.8h5.7ZM316.7,316.7h2.9c.8,0,1.4-.7,1.4-1.4s-.7-1.4-1.4-1.4h-3v2.9ZM321.9,320.9c0-.8-.7-1.5-1.5-1.5h-3.8v2.9h3.8c.8,0,1.4-.6,1.4-1.4Z"/>
      <path d="M333.3,322.1h-5.1l-1.1,2.8h-2.9l5-13.8h3.2l4.7,13.8h-2.9l-1.1-2.8ZM332.3,319.6l-1.6-4.2-1.6,4.2h3.2Z"/>
      <path d="M349.5,324.9h-3.4s-4.3-6-4.3-6l-1.5,1.6v4.4h-2.9v-13.8h2.9v5.7l5.2-5.7h3.4l-5.2,5.6,5.8,8.1Z"/>
      <path d="M353.1,316.4h5.8v-5.2h3.1v13.8h-3.1v-5.8h-5.8v5.8h-3.1v-13.8h3.1v5.2Z"/>
    </g>
  </g>
</svg>